<svg width="307" height="54" viewBox="0 0 307 54" fill="none" xmlns="http://www.w3.org/2000/svg">
<path d="M39.1451 2.88684C52.4551 9.59281 57.8125 25.8113 51.1133 39.1288L46.0393 33.8733C49.8443 23.3623 44.3999 11.7584 33.8889 7.96017C33.6784 7.87922 33.2682 7.74429 33.0524 7.67682L29.4565 6.2938L31.4197 8.55386L46.0393 33.8733L50.1141 40.9301C49.6081 41.8139 48.495 43.3858 47.8271 44.1542C38.347 55.6576 21.3392 57.2963 9.84322 47.8108L11.936 40.505C19.3975 48.8227 32.1949 49.525 40.5207 42.0635C40.9457 41.6924 41.708 40.9301 42.0791 40.505L38.1736 33.7384H17.8061L19.7423 26.9919H33.3897L35.1505 27.4979L33.8349 26.2228L27.4528 15.1721L27.0075 13.3911L26.5623 15.1721L19.7423 26.9919L11.9366 40.505L8.43524 46.5694C-0.0983417 38.9803 -2.55472 24.887 2.90315 14.855C9.60912 1.5443 25.8276 -3.81238 39.1451 2.88684ZM22.596 8.55386L24.5593 6.2938L20.9634 7.67682C10.9921 10.6857 4.87986 21.2777 7.25461 31.4108L7.8564 35.2226L8.83328 32.3891L22.596 8.55386Z" fill="url(#paint0_linear_6_7)"/>
<path d="M67.123 32.7955H78.7238L81.6944 40.5038H83.0772L73.6788 16.406H71.9631L63 40.5038H64.306L67.123 32.7955ZM74.7544 22.4752L78.2884 31.6944H67.5327L70.8875 22.5008L72.8081 17.2767L74.7544 22.4752ZM87.3283 22.0143H86.1247V34.6138C86.1247 39.0953 88.0197 40.8623 91.8866 40.8623C95.8304 40.8623 97.6486 38.5319 98.5449 36.2015L98.6217 40.5038H99.7997L99.7485 36.6625V22.0143H98.5193V32.8212C98.5193 37.2002 95.8304 39.8636 92.1427 39.8636C89.0185 39.8636 87.3283 38.4551 87.3283 34.4345V22.0143ZM113.372 23.1154V21.8606H112.783C110.094 21.8606 107.995 23.8581 107.38 26.3678C107.406 24.6264 107.329 23.2691 107.303 22.0143H106.125C106.151 23.3203 106.202 25.1641 106.202 26.4958V40.5038H107.457V29.1335C107.457 26.4446 109.275 23.1154 112.681 23.1154H113.372ZM124.077 40.8623C128.302 40.8623 129.736 39.1465 130.991 36.6369L129.864 36.2783C128.712 38.5575 127.534 39.7867 124.128 39.7867C119.647 39.7867 117.726 36.3039 117.726 31.6432V31.3615H131.222C131.222 31.259 131.247 30.4395 131.247 30.3115C131.247 25.5995 129.788 21.6558 124.051 21.6558C119.595 21.6558 116.42 24.3959 116.42 31.2078C116.42 37.0978 118.801 40.8623 124.077 40.8623ZM124.051 22.6801C128.2 22.6801 129.916 25.4458 129.916 29.9274V30.2859H117.726C117.854 24.7032 120.671 22.6801 124.051 22.6801ZM152.477 39.7867H151.043C149.89 39.7867 149.609 39.2233 149.609 38.199V27.8018C149.609 23.6788 147.432 21.6558 143.232 21.6558C139.237 21.6558 137.163 23.4996 136.728 26.547L137.982 26.6751C138.469 23.8581 140.108 22.6801 143.181 22.6801C146.741 22.6801 148.354 24.3959 148.354 27.9555V29.8249H143.975C138.93 29.8249 135.908 31.72 135.908 35.5613C135.908 38.6856 137.931 40.8623 141.721 40.8623C145.153 40.8623 147.432 39.2489 148.354 36.2271V38.2758C148.354 39.7867 148.892 40.8623 150.787 40.8623C151.555 40.8623 152.144 40.8367 152.477 40.7855V39.7867ZM141.721 39.8123C138.776 39.8123 137.137 38.0966 137.137 35.5101C137.137 32.1809 139.775 30.8237 144.308 30.8237H148.354V31.6175C148.354 36.2015 146.356 39.8123 141.721 39.8123ZM157.138 40.5038H158.367V13H157.138V40.5038ZM165.179 40.5038H166.434V22.0143H165.179V40.5038ZM165 17.1742H166.613V15.1511H165V17.1742ZM184.898 35.5869C184.898 31.7968 181.671 31.1054 178.495 30.3627C175.217 29.5688 173.169 28.6469 173.169 26.1373C173.169 23.9093 175.038 22.7313 178.034 22.7313C181.005 22.7313 182.618 23.8325 183.284 26.0861L184.488 25.9836C183.694 23.2179 181.953 21.6558 178.086 21.6558C173.835 21.6558 171.94 23.5764 171.94 26.2397C171.94 29.7225 174.782 30.7212 177.778 31.3871C181.364 32.2322 183.694 32.9492 183.694 35.6637C183.694 38.4551 181.722 39.8123 178.188 39.8123C174.885 39.8123 173.118 38.5063 172.4 36.0479L171.274 36.3039C172.016 39.4538 174.526 40.8623 178.111 40.8623C182.49 40.8623 184.898 38.9929 184.898 35.5869ZM212.99 33.9479C212.99 29.4152 209.405 28.5189 204.744 27.3921C200.852 26.419 197.856 25.4202 197.856 21.835C197.856 18.8132 200.058 17.123 204.258 17.123C208.586 17.123 210.02 18.7876 210.942 21.6814L212.196 21.4765C211.198 18.2754 209.559 16.0474 204.36 16.0474C199.623 16.0474 196.601 18.0193 196.601 21.8606C196.601 26.2653 200.263 27.5201 204.258 28.4677C208.97 29.5432 211.736 30.4652 211.736 34.0248C211.736 37.6356 209.508 39.7867 204.565 39.7867C199.443 39.7867 197.856 37.61 196.857 34.4345L195.653 34.6906C196.678 38.4551 199.085 40.8623 204.488 40.8623C210.737 40.8623 212.99 37.7893 212.99 33.9479ZM216.448 23.013H218.983V37.738C218.983 39.4282 219.546 40.8623 222.056 40.8623C223.131 40.8623 223.49 40.8367 224.258 40.7855V39.6843H222.491C220.801 39.6843 220.212 39.2233 220.212 37.4819V23.013H224.156V22.0143H220.212V16.7645H218.983V22.0143H216.448V23.013ZM229.354 22.0143H228.125V34.6138C228.125 39.0953 230.02 40.8623 233.887 40.8623C237.831 40.8623 239.675 38.5319 240.571 36.2015L240.648 40.5038H241.826L241.749 36.6625V22.0143H240.52V32.8212C240.52 37.2002 237.831 39.8636 234.143 39.8636C231.019 39.8636 229.354 38.4551 229.354 34.4345V22.0143ZM253.759 40.8623C256.448 40.8623 259.112 39.7611 260.187 36.0991C260.187 37.2515 260.213 39.7611 260.29 40.5038H261.493C261.442 39.7099 261.365 38.1478 261.365 36.8417V13H260.136V24.0374C260.136 24.6264 260.136 25.3434 260.187 25.9068C259.521 23.4996 257.447 21.6558 253.913 21.6558C249.636 21.6558 246.691 24.3703 246.691 31.0798C246.691 38.199 249.201 40.8623 253.759 40.8623ZM253.939 39.7611C250.2 39.7611 247.997 37.5332 247.997 31.0285C247.997 25.0873 250.353 22.7313 253.913 22.7313C258.062 22.7313 260.136 25.369 260.136 30.8493C260.136 36.9954 257.857 39.7611 253.939 39.7611ZM267.819 40.5038H269.073V22.0143H267.819V40.5038ZM267.639 17.1742H269.253V15.1511H267.639V17.1742ZM288.613 31.0798C288.613 37.4819 286.129 39.8123 282.185 39.8123C278.421 39.8123 275.783 37.4819 275.783 31.1054C275.783 25.1641 278.216 22.6801 282.236 22.6801C286.462 22.6801 288.613 25.0873 288.613 31.0798ZM289.97 31.0798C289.97 24.5239 287.307 21.6558 282.236 21.6558C277.396 21.6558 274.451 24.5239 274.451 31.1054C274.451 38.2502 277.704 40.8623 282.236 40.8623C286.743 40.8623 289.97 38.4295 289.97 31.0798ZM307 35.5869C307 31.7968 303.773 31.1054 300.623 30.3627C297.32 29.5688 295.271 28.6469 295.271 26.1373C295.271 23.9093 297.141 22.7313 300.162 22.7313C303.133 22.7313 304.746 23.8325 305.387 26.0861L306.616 25.9836C305.822 23.2179 304.055 21.6558 300.188 21.6558C295.963 21.6558 294.068 23.5764 294.068 26.2397C294.068 29.7225 296.885 30.7212 299.906 31.3871C303.492 32.2322 305.822 32.9492 305.822 35.6637C305.822 38.4551 303.85 39.8123 300.291 39.8123C296.987 39.8123 295.246 38.5063 294.529 36.0479L293.376 36.3039C294.119 39.4538 296.628 40.8623 300.214 40.8623C304.593 40.8623 307 38.9929 307 35.5869Z" fill="white"/>
<defs>
<linearGradient id="paint0_linear_6_7" x1="-3.47858" y1="2.21018" x2="45.462" y2="25.0316" gradientUnits="userSpaceOnUse">
<stop stop-color="#0076DD"/>
<stop offset="1" stop-color="#00CDE9"/>
</linearGradient>
</defs>
</svg>
