<svg width="54" height="54" viewBox="0 0 54 54" fill="none" xmlns="http://www.w3.org/2000/svg">
<path d="M39.1451 2.88684C52.4551 9.59281 57.8125 25.8113 51.1133 39.1288L46.0393 33.8733C49.8443 23.3623 44.3999 11.7584 33.8889 7.96017C33.6784 7.87922 33.2682 7.74429 33.0524 7.67682L29.4565 6.2938L31.4197 8.55386L46.0393 33.8733L50.1141 40.9301C49.6081 41.8139 48.495 43.3858 47.8271 44.1542C38.347 55.6576 21.3392 57.2963 9.84322 47.8108L11.936 40.505C19.3975 48.8227 32.1949 49.525 40.5207 42.0635C40.9457 41.6924 41.708 40.9301 42.0791 40.505L38.1736 33.7384H17.8061L19.7423 26.9919H33.3897L35.1505 27.4979L33.8349 26.2228L27.4528 15.1721L27.0075 13.3911L26.5623 15.1721L19.7423 26.9919L11.9366 40.505L8.43524 46.5694C-0.0983417 38.9803 -2.55472 24.887 2.90315 14.855C9.60912 1.5443 25.8276 -3.81238 39.1451 2.88684ZM22.596 8.55386L24.5593 6.2938L20.9634 7.67682C10.9921 10.6857 4.87986 21.2777 7.25461 31.4108L7.8564 35.2226L8.83328 32.3891L22.596 8.55386Z" fill="url(#paint0_linear_0_8)"/>
<defs>
<linearGradient id="paint0_linear_0_8" x1="-3.47858" y1="2.21018" x2="45.462" y2="25.0316" gradientUnits="userSpaceOnUse">
<stop stop-color="#0076DD"/>
<stop offset="1" stop-color="#00CDE9"/>
</linearGradient>
</defs>
</svg>
