<?xml version="1.0" encoding="utf-8"?>
<!-- Generator: Adobe Illustrator 25.4.1, SVG Export Plug-In . SVG Version: 6.00 Build 0)  -->
<svg version="1.1" id="Layer_1" xmlns="http://www.w3.org/2000/svg" xmlns:xlink="http://www.w3.org/1999/xlink" x="0px" y="0px"
	 viewBox="0 0 294 58" style="enable-background:new 0 0 294 58;" xml:space="preserve">
<style type="text/css">
	.st0{fill:url(#SVGID_1_);}
	.st1{fill:#002B3D;}
</style>
<g id="b0e23f3b-7990-4888-a3f1-9abd2a620808" transform="matrix(0.7421417908331774,0,0,0.7421417908331774,112.90194857352682,89.05130331575452)">
	
		<linearGradient id="SVGID_1_" gradientUnits="userSpaceOnUse" x1="-153.8877" y1="-39.8721" x2="-153.154" y2="-39.8721" gradientTransform="matrix(53.837 25.0945 25.1046 -53.8153 9145.543 1616.022)">
		<stop  offset="0" style="stop-color:#3774BA"/>
		<stop  offset="1" style="stop-color:#37C3E0"/>
	</linearGradient>
	<path class="st0" d="M-91.73-109.71c14.47,7.29,20.3,24.92,13.01,39.4l-5.52-5.71c4.14-11.43-1.78-24.04-13.21-28.17
		c-0.23-0.09-0.67-0.23-0.91-0.31l-3.91-1.5l2.13,2.46l15.89,27.53l4.43,7.67c-0.55,0.96-1.76,2.67-2.49,3.51
		c-10.31,12.51-28.8,14.29-41.3,3.98l2.28-7.94c8.11,9.04,22.03,9.81,31.08,1.69c0.46-0.4,1.29-1.23,1.69-1.69l-4.25-7.36h-22.14
		l2.11-7.34h14.84l1.91,0.55l-1.43-1.39l-6.94-12.01l-0.48-1.94l-0.48,1.94l-7.41,12.85l-8.49,14.69l-3.81,6.59
		c-9.28-8.25-11.95-23.57-6.01-34.48C-123.84-111.17-106.2-116.99-91.73-109.71z M-109.72-103.54l2.13-2.46l-3.91,1.5
		c-10.84,3.27-17.49,14.79-14.9,25.8l0.65,4.14l1.06-3.08C-124.68-77.63-109.72-103.54-109.72-103.54z"/>
</g>
<g id="_x38_b17438e-3175-48b0-bd9e-2df168c6c000" transform="matrix(2.728799144751977,0,0,2.728799144751977,19.263224201640128,174.49957932435825)">
	<path class="st1" d="M21.19-52.56h3.43l0.88,2.28h0.41l-2.78-7.12h-0.51l-2.65,7.12h0.39L21.19-52.56z M23.44-55.61l1.04,2.73
		h-3.18l0.99-2.72l0.57-1.54L23.44-55.61z M27.16-55.74H26.8v3.72c0,1.32,0.56,1.85,1.7,1.85c1.17,0,1.7-0.69,1.97-1.38l0.02,1.27
		h0.35l-0.02-1.14v-4.33h-0.36v3.19c0,1.29-0.79,2.08-1.88,2.08c-0.92,0-1.42-0.42-1.42-1.6V-55.74z M34.86-55.42v-0.37h-0.17
		c-0.79,0-1.42,0.59-1.6,1.33c0.01-0.51-0.02-0.92-0.02-1.29h-0.35c0.01,0.39,0.02,0.93,0.02,1.32v4.14h0.37v-3.36
		c0-0.79,0.54-1.78,1.54-1.78H34.86z M38.02-50.17c1.25,0,1.67-0.51,2.04-1.25l-0.33-0.11c-0.34,0.67-0.69,1.04-1.7,1.04
		c-1.32,0-1.89-1.03-1.89-2.41v-0.08h3.99c0-0.03,0.01-0.27,0.01-0.31c0-1.39-0.43-2.56-2.13-2.56c-1.32,0-2.26,0.81-2.26,2.82
		C35.76-51.28,36.46-50.17,38.02-50.17z M38.02-55.55c1.23,0,1.73,0.82,1.73,2.14v0.11h-3.6C36.18-54.95,37.02-55.55,38.02-55.55z
		 M46.42-50.49h-0.42c-0.34,0-0.42-0.17-0.42-0.47v-3.07c0-1.22-0.64-1.82-1.88-1.82c-1.18,0-1.79,0.55-1.92,1.45l0.37,0.04
		c0.14-0.83,0.63-1.18,1.54-1.18c1.05,0,1.53,0.51,1.53,1.56v0.55h-1.29c-1.49,0-2.38,0.56-2.38,1.7c0,0.92,0.6,1.57,1.72,1.57
		c1.01,0,1.69-0.48,1.96-1.37v0.61c0,0.45,0.16,0.76,0.72,0.76c0.23,0,0.4-0.01,0.5-0.02V-50.49z M43.24-50.48
		c-0.87,0-1.36-0.51-1.36-1.27c0-0.98,0.78-1.39,2.12-1.39h1.2v0.23C45.2-51.55,44.61-50.48,43.24-50.48z M47.8-50.28h0.36v-8.13
		H47.8V-50.28z M50.17-50.28h0.37v-5.47h-0.37V-50.28z M50.12-57.17h0.48v-0.6h-0.48V-57.17z M56-51.73c0-1.12-0.95-1.32-1.89-1.54
		c-0.97-0.23-1.57-0.51-1.57-1.25c0-0.66,0.55-1.01,1.44-1.01c0.88,0,1.36,0.33,1.55,0.99l0.36-0.03c-0.23-0.82-0.75-1.28-1.89-1.28
		c-1.26,0-1.82,0.57-1.82,1.36c0,1.03,0.84,1.32,1.73,1.52c1.06,0.25,1.75,0.46,1.75,1.26c0,0.83-0.58,1.23-1.63,1.23
		c-0.98,0-1.5-0.39-1.71-1.11l-0.33,0.08c0.22,0.93,0.96,1.35,2.02,1.35C55.29-50.17,56-50.72,56-51.73z M64.31-52.22
		c0-1.34-1.06-1.6-2.44-1.94c-1.15-0.29-2.04-0.58-2.04-1.64c0-0.89,0.65-1.39,1.89-1.39c1.28,0,1.7,0.49,1.98,1.35l0.37-0.06
		c-0.3-0.95-0.78-1.6-2.32-1.6c-1.4,0-2.29,0.58-2.29,1.72c0,1.3,1.08,1.67,2.26,1.95c1.39,0.32,2.21,0.59,2.21,1.64
		c0,1.07-0.66,1.7-2.12,1.7c-1.51,0-1.98-0.64-2.28-1.58L59.18-52c0.3,1.11,1.01,1.82,2.61,1.82
		C63.64-50.17,64.31-51.08,64.31-52.22z M65.33-55.45h0.75v4.35c0,0.5,0.17,0.92,0.91,0.92c0.32,0,0.42-0.01,0.65-0.02v-0.33h-0.52
		c-0.5,0-0.67-0.14-0.67-0.65v-4.28h1.17v-0.3h-1.17v-1.55h-0.36v1.55h-0.75V-55.45z M69.14-55.74h-0.36v3.72
		c0,1.32,0.56,1.85,1.7,1.85c1.17,0,1.71-0.69,1.98-1.38l0.02,1.27h0.35l-0.02-1.14v-4.33h-0.36v3.19c0,1.29-0.79,2.08-1.88,2.08
		c-0.92,0-1.42-0.42-1.42-1.6V-55.74z M76.36-50.17c0.79,0,1.58-0.33,1.9-1.41c0,0.34,0.01,1.08,0.03,1.3h0.36
		c-0.02-0.23-0.04-0.7-0.04-1.08v-7.05h-0.36v3.26c0,0.17,0,0.39,0.02,0.55c-0.2-0.71-0.81-1.26-1.85-1.26
		c-1.26,0-2.13,0.8-2.13,2.79C74.27-50.96,75.01-50.17,76.36-50.17z M76.41-50.5c-1.11,0-1.76-0.66-1.76-2.58
		c0-1.76,0.7-2.45,1.75-2.45c1.23,0,1.84,0.78,1.84,2.4C78.24-51.31,77.57-50.5,76.41-50.5z M80.51-50.28h0.37v-5.47h-0.37V-50.28z
		 M80.46-57.17h0.48v-0.6h-0.48V-57.17z M86.66-53.06c0,1.89-0.73,2.58-1.9,2.58c-1.11,0-1.89-0.69-1.89-2.57
		c0-1.76,0.72-2.49,1.91-2.49C86.03-55.55,86.66-54.83,86.66-53.06z M87.06-53.06c0-1.94-0.79-2.79-2.29-2.79
		c-1.43,0-2.3,0.85-2.3,2.79c0,2.11,0.96,2.88,2.3,2.88C86.11-50.17,87.06-50.89,87.06-53.06z M92.1-51.73
		c0-1.12-0.95-1.32-1.88-1.54c-0.98-0.23-1.58-0.51-1.58-1.25c0-0.66,0.55-1.01,1.45-1.01c0.88,0,1.36,0.33,1.54,0.99l0.36-0.03
		c-0.23-0.82-0.76-1.28-1.9-1.28c-1.25,0-1.81,0.57-1.81,1.36c0,1.03,0.83,1.32,1.73,1.52c1.06,0.25,1.75,0.46,1.75,1.26
		c0,0.83-0.58,1.23-1.64,1.23c-0.98,0-1.49-0.39-1.7-1.11l-0.34,0.08c0.22,0.93,0.96,1.35,2.02,1.35
		C91.38-50.17,92.1-50.72,92.1-51.73z"/>
</g>
</svg>
